<?xml version="1.0" standalone="no"?>
<!DOCTYPE svg PUBLIC "-//W3C//DTD SVG 20010904//EN"
 "http://www.w3.org/TR/2001/REC-SVG-20010904/DTD/svg10.dtd">
<svg version="1.0" xmlns="http://www.w3.org/2000/svg"
 width="500.000000pt" height="500.000000pt" viewBox="0 0 500.000000 500.000000"
 preserveAspectRatio="xMidYMid meet">
<metadata>
Created by potrace 1.14, written by Peter Selinger 2001-2017
</metadata>
<g transform="translate(0.000000,500.000000) scale(0.100000,-0.100000)"
fill="#000000" stroke="none">
<path d="M0 2500 l0 -2500 2500 0 2500 0 0 2500 0 2500 -2500 0 -2500 0 0
-2500z m2482 745 c54 -30 108 -55 119 -55 12 0 41 18 66 40 25 22 49 40 52 40
3 0 56 -47 116 -103 125 -118 145 -130 264 -163 47 -13 111 -31 141 -41 l55
-18 62 -125 c34 -69 64 -129 67 -135 2 -5 23 9 44 33 23 24 49 42 61 42 24 0
276 -164 329 -214 19 -17 47 -56 62 -87 43 -84 48 -86 133 -65 l71 19 19 -24
c10 -13 51 -80 91 -149 l72 -125 55 3 c49 2 57 0 80 -25 61 -65 219 -276 213
-284 -3 -5 0 -9 5 -9 6 0 11 -21 11 -50 l0 -50 -2170 0 -2170 0 0 50 c0 45 2
50 23 50 17 0 19 2 7 10 -12 8 -12 11 1 27 9 10 98 115 199 233 282 332 272
323 356 321 62 -1 51 -9 169 120 67 73 271 229 300 229 15 0 38 -18 70 -55 25
-30 50 -55 54 -55 4 0 53 67 110 149 56 82 113 161 127 176 27 29 38 30 125 5
25 -7 56 -10 70 -7 14 4 92 66 174 138 176 155 243 209 258 209 5 0 55 -25
109 -55z"/>
<path d="M2339 3204 c-12 -15 -11 -16 7 -10 20 6 23 0 38 -81 9 -49 20 -113
24 -143 l7 -55 59 0 58 0 84 -199 c46 -109 83 -200 81 -202 -1 -1 -56 13 -122
31 -65 19 -119 34 -120 32 -1 -1 -22 -73 -46 -159 -24 -87 -46 -158 -50 -158
-4 0 -30 57 -59 127 -29 70 -57 137 -63 150 l-10 22 -17 -22 c-9 -12 -90 -130
-179 -262 -89 -132 -165 -241 -169 -242 -4 -2 -34 35 -66 82 -51 74 -61 83
-75 73 -9 -7 -50 -40 -91 -73 -41 -33 -82 -66 -91 -73 -14 -10 -38 -8 -130 14
-63 14 -117 29 -121 33 -4 3 31 51 77 106 64 76 85 107 85 130 1 71 23 119
131 282 114 173 133 203 126 203 -3 0 -46 -61 -96 -135 -50 -74 -95 -136 -100
-139 -4 -3 -34 22 -66 54 -33 33 -67 60 -76 60 -31 0 -227 -160 -291 -237 -72
-86 -99 -103 -167 -103 -27 0 -56 -3 -65 -6 -9 -3 -109 -114 -222 -245 -113
-132 -213 -243 -222 -249 -11 -6 740 -9 2108 -9 1851 0 2122 2 2099 14 -15 8
-59 57 -99 110 -40 52 -83 98 -94 100 -12 3 -41 4 -65 3 l-44 -3 -73 125 c-40
69 -81 136 -92 150 l-20 25 5 -84 c6 -80 5 -83 -14 -77 -37 12 -77 -14 -159
-102 -45 -48 -85 -84 -89 -80 -4 4 12 48 35 98 23 50 43 109 44 131 3 50 16
62 96 88 45 15 53 20 25 15 -22 -4 -58 -7 -80 -8 l-40 -1 -36 75 c-20 41 -50
87 -65 101 -16 14 -94 68 -173 118 l-144 93 -26 -34 c-14 -18 -38 -46 -53 -63
l-26 -30 -72 148 c-39 81 -75 147 -81 147 -13 0 -159 -88 -187 -113 -15 -14
-48 -98 -108 -284 -48 -145 -91 -263 -96 -263 -4 0 -6 10 -3 23 29 125 35 161
30 177 -3 10 -26 26 -50 36 l-45 17 29 36 c87 112 116 204 108 349 l-5 104 27
-7 c82 -21 239 -55 255 -55 35 0 12 9 -90 36 -153 40 -231 83 -329 181 -45 45
-87 83 -92 83 -6 0 -18 -9 -29 -21 -25 -27 -67 -49 -96 -49 -13 0 -66 25 -118
55 -52 30 -100 55 -106 55 -6 0 -18 -7 -25 -16z m396 -66 c3 -13 23 -99 46
-191 22 -93 39 -176 37 -185 -3 -18 -198 276 -198 298 0 14 88 99 102 100 4 0
10 -10 13 -22z m957 -574 c137 -93 148 -102 148 -125 0 -20 -109 -309 -139
-366 l-19 -38 -6 35 c-3 19 -8 55 -11 80 -7 61 -45 162 -59 157 -6 -2 -30 -46
-53 -98 -23 -51 -47 -95 -53 -97 -8 -3 -9 23 -4 87 4 57 3 91 -3 91 -5 0 -25
-19 -43 -42 -29 -35 -65 -56 -254 -148 -247 -119 -284 -135 -292 -127 -8 8 19
55 70 123 54 72 69 108 61 145 -6 26 -4 28 52 44 73 21 112 58 165 155 23 41
50 88 61 103 21 30 16 30 110 10 23 -4 34 1 65 34 36 39 54 51 79 52 7 1 63
-33 125 -75z m-2338 40 c11 -28 6 -79 -9 -101 -8 -11 -35 -33 -60 -47 -54 -32
-65 -50 -81 -143 -13 -79 -46 -143 -72 -143 -9 0 -44 7 -77 14 -38 9 -65 11
-76 5 -10 -5 -40 -46 -68 -92 -28 -46 -63 -96 -78 -112 -24 -23 -199 -145
-209 -145 -13 0 4 37 65 144 38 66 83 150 100 186 17 36 44 79 61 95 27 25 40
30 88 32 31 1 62 2 69 2 7 1 28 25 46 54 19 28 58 75 88 104 55 52 189 161
200 162 4 1 10 -6 13 -15z"/>
<path d="M1759 2883 c-12 -16 -12 -17 2 -5 15 11 22 -1 64 -103 32 -77 51
-112 56 -103 5 7 18 42 30 78 12 36 30 79 40 95 l18 31 -34 -4 c-19 -2 -56 3
-81 12 -61 20 -78 20 -95 -1z"/>
</g>
</svg>
